<mxfile host="app.diagrams.net" modified="2023-02-03T01:55:51.934Z" agent="5.0 (Windows NT 10.0; Win64; x64) AppleWebKit/537.36 (KHTML, like Gecko) Chrome/108.0.0.0 YaBrowser/23.1.1.1138 Yowser/2.5 Safari/537.36" etag="IkMaSMUCx57LIqysAS7y" version="20.8.16" type="github">
  <diagram name="Страница 1" id="mBfqzwKPrq29am5819--">
    <mxGraphModel dx="1386" dy="727" grid="1" gridSize="10" guides="1" tooltips="1" connect="1" arrows="1" fold="1" page="1" pageScale="1" pageWidth="827" pageHeight="1169" math="0" shadow="0">
      <root>
        <mxCell id="0" />
        <mxCell id="1" parent="0" />
        <mxCell id="1rFVrPOWVBr37RiGCady-1" value="Data" style="rounded=1;whiteSpace=wrap;html=1;align=left;verticalAlign=top;fontSize=23;fontStyle=1" vertex="1" parent="1">
          <mxGeometry x="250" y="220" width="340" height="130" as="geometry" />
        </mxCell>
        <mxCell id="1rFVrPOWVBr37RiGCady-2" value="Domain&lt;br style=&quot;font-size: 21px;&quot;&gt;" style="rounded=1;whiteSpace=wrap;html=1;verticalAlign=top;align=left;fontStyle=1;horizontal=1;fontSize=21;" vertex="1" parent="1">
          <mxGeometry x="250" y="450" width="340" height="130" as="geometry" />
        </mxCell>
        <mxCell id="1rFVrPOWVBr37RiGCady-3" value="&lt;font style=&quot;font-size: 5px;&quot;&gt;UserRepository&lt;/font&gt;" style="rounded=1;whiteSpace=wrap;html=1;fontSize=23;" vertex="1" parent="1">
          <mxGeometry x="354" y="255" width="120" height="60" as="geometry" />
        </mxCell>
      </root>
    </mxGraphModel>
  </diagram>
</mxfile>
